<svg t="1642560650474" class="icon" viewBox="0 0 1419 1024" version="1.1" xmlns="http://www.w3.org/2000/svg" p-id="9595" width="200" height="200"><path d="M0 0.061217h1419.130435v1020.883479H0z" fill="#FFFFFF" p-id="9596"></path><path d="M0 0h1419.130435v83.478261H0zM0 156.755478h1419.130435v83.478261H0zM0 313.505391h1419.130435v83.478261H0zM0 470.26087h1419.130435v83.47826H0zM0 627.016348h1419.130435v83.478261H0zM0 783.766261h1419.130435v83.478261H0zM0 940.521739h1419.130435v83.478261H0z" fill="#C20000" p-id="9597"></path><path d="M0 0.061217h676.59687v556.716522H0z" fill="#0060B6" p-id="9598"></path><path d="M61.81287 34.114783l8.870956 17.970087 19.834435 2.882782-14.347131 13.990957 3.383653 19.750956-17.741913-9.321739L44.076522 88.709565l3.383652-19.750956L33.113043 54.967652l19.834435-2.882782zM123.742609 96.128l8.870956 17.970087 19.834435 2.882783-14.352696 13.990956 3.389218 19.750957-17.741913-9.32174-17.741913 9.32174 3.389217-19.750957-14.352696-13.990956 19.834435-2.882783zM185.666783 158.141217l8.870956 17.970087 19.84 2.882783-14.358261 13.985391 3.389218 19.756522-17.741913-9.327304-17.736348 9.327304 3.383652-19.756522-14.34713-13.985391 19.834434-2.882783zM247.596522 220.154435l8.865391 17.970087 19.84 2.882782-14.352696 13.985392 3.389218 19.756521-17.741913-9.327304-17.741913 9.327304 3.389217-19.756521-14.352696-13.985392 19.834435-2.882782zM309.526261 282.162087l8.865391 17.975652 19.834435 2.877218-14.34713 13.990956 3.383652 19.756522-17.736348-9.327305-17.741913 9.327305 3.389217-19.756522-14.358261-13.990956 19.84-2.877218zM371.450435 344.175304l8.870956 17.975653 19.834435 2.877217-14.352696 13.990956 3.389218 19.756522-17.741913-9.327304-17.736348 9.327304 3.383652-19.756522-14.352696-13.990956 19.834435-2.877217zM433.380174 406.188522l8.865391 17.970087 19.84 2.882782-14.352695 13.990957 3.383652 19.750956-17.736348-9.321739-17.741913 9.321739 3.383652-19.750956-14.352696-13.990957 19.84-2.882782zM495.304348 468.201739l8.870956 17.970087 19.834435 2.882783-14.352696 13.990956 3.389218 19.745392L495.304348 513.474783l-17.736348 9.316174 3.383652-19.745392-14.352695-13.990956 19.834434-2.882783z" fill="#FFFFFF" p-id="9599"></path><path d="M188.249043 34.114783l8.870957 17.970087 19.834435 2.882782-14.352696 13.990957 3.389218 19.750956-17.741914-9.321739-17.736347 9.321739 3.383652-19.750956-14.352696-13.990957 19.834435-2.882782zM250.178783 96.128l8.865391 17.970087 19.84 2.882783-14.352696 13.990956 3.383652 19.750957-17.736347-9.32174-17.741913 9.32174 3.389217-19.750957-14.358261-13.990956 19.84-2.882783zM312.102957 158.141217l8.870956 17.970087 19.834435 2.882783-14.352696 13.985391 3.389218 19.756522-17.741913-9.327304-17.736348 9.327304 3.383652-19.756522-14.352696-13.985391 19.834435-2.882783zM374.02713 220.154435l8.870957 17.970087 19.84 2.882782-14.352696 13.985392 3.383652 19.756521-17.741913-9.327304-17.736347 9.327304 3.383652-19.756521-14.352696-13.985392 19.84-2.882782zM435.95687 282.162087l8.870956 17.975652 19.84 2.877218-14.352696 13.990956 3.383653 19.756522-17.741913-9.327305-17.736348 9.327305 3.383652-19.756522-14.352696-13.990956 19.84-2.877218zM497.886609 344.175304l8.870956 17.975653 19.834435 2.877217-14.352696 13.990956 3.383653 19.756522-17.736348-9.327304-17.741913 9.327304 3.389217-19.756522-14.352696-13.990956 19.834435-2.877217zM559.810783 406.188522l8.870956 17.970087 19.84 2.882782-14.358261 13.990957 3.389218 19.750956-17.741913-9.321739-17.736348 9.321739 3.383652-19.750956-14.352696-13.990957 19.84-2.882782zM621.740522 468.201739l8.870956 17.970087 19.834435 2.882783-14.352696 13.990956 3.383653 19.745392-17.736348-9.316174-17.741913 9.316174 3.389217-19.745392-14.352696-13.990956 19.834435-2.882783z" fill="#FFFFFF" p-id="9600"></path><path d="M312.102957 34.114783l8.870956 17.970087 19.834435 2.882782-14.352696 13.990957 3.389218 19.750956-17.741913-9.321739-17.736348 9.321739 3.383652-19.750956-14.352696-13.990957 19.834435-2.882782zM374.02713 96.128l8.870957 17.970087 19.84 2.882783-14.352696 13.990956 3.383652 19.750957-17.741913-9.32174-17.736347 9.32174 3.383652-19.750957-14.352696-13.990956 19.84-2.882783zM435.95687 158.141217l8.870956 17.970087 19.834435 2.882783-14.352696 13.985391 3.383652 19.756522-17.736347-9.327304-17.741913 9.327304 3.389217-19.756522-14.352696-13.985391 19.834435-2.882783zM497.881043 220.154435l8.870957 17.970087 19.84 2.882782-14.358261 13.985392 3.389218 19.756521-17.741914-9.327304-17.736347 9.327304 3.383652-19.756521-14.352696-13.985392 19.84-2.882782zM559.810783 282.162087l8.870956 17.975652 19.84 2.877218-14.358261 13.990956 3.389218 19.756522-17.741913-9.327305-17.736348 9.327305 3.383652-19.756522-14.352696-13.990956 19.84-2.877218zM621.740522 344.175304l8.870956 17.975653 19.834435 2.877217-14.352696 13.990956 3.383653 19.756522-17.736348-9.327304-17.741913 9.327304 3.389217-19.756522-14.352696-13.990956 19.834435-2.877217z" fill="#FFFFFF" p-id="9601"></path><path d="M435.962435 34.114783l8.870956 17.970087 19.834435 2.882782-14.352696 13.990957 3.383653 19.750956-17.736348-9.321739-17.741913 9.321739 3.389217-19.750956-14.352696-13.990957 19.834435-2.882782zM497.892174 96.128l8.870956 17.970087 19.834435 2.882783-14.358261 13.990956 3.389218 19.750957-17.736348-9.32174-17.741913 9.32174 3.383652-19.750957-14.34713-13.990956 19.834434-2.882783zM559.816348 158.141217l8.870956 17.970087 19.834435 2.877218-14.352696 13.990956 3.383653 19.762087-17.736348-9.327304-17.741913 9.327304 3.389217-19.762087-14.352695-13.990956 19.834434-2.877218zM621.740522 220.154435l8.870956 17.970087 19.834435 2.882782-14.34713 13.985392 3.378087 19.756521-17.736348-9.327304-17.741913 9.327304 3.394782-19.756521-14.358261-13.985392 19.834435-2.882782z" fill="#FFFFFF" p-id="9602"></path><path d="M559.810783 34.114783l8.870956 17.970087 19.834435 2.882782-14.352696 13.990957 3.383652 19.750956-17.736347-9.321739-17.741913 9.321739 3.389217-19.750956-14.352696-13.990957 19.834435-2.882782zM621.740522 96.128l8.870956 17.970087 19.834435 2.882783-14.358261 13.985391 3.389218 19.762087-17.736348-9.327305-17.741913 9.327305 3.383652-19.762087-14.347131-13.985391 19.834435-2.882783z" fill="#FFFFFF" p-id="9603"></path><path d="M362.957913 522.790957l-8.870956-17.958957-19.834435-2.882783 14.352695-13.985391-3.389217-19.762087 17.741913 9.327304 17.736348-9.327304-3.383652 19.762087 14.352695 13.985391-19.834434 2.882783zM301.028174 460.78887l-8.870957-17.975653-19.834434-2.877217 14.35826-13.990957-3.394782-19.756521 17.741913 9.327304 17.736348-9.327304-3.378087 19.756521 14.34713 13.990957-19.834435 2.877217zM239.104 398.775652l-8.870957-17.964522-19.834434-2.882782 14.352695-13.985391-3.389217-19.762087 17.741913 9.327304 17.736348-9.327304-3.383652 19.762087 14.352695 13.985391-19.834434 2.882782zM177.179826 336.768l-8.870956-17.981217-19.834435-2.877218 14.34713-13.990956-3.383652-19.750957 17.741913 9.321739 17.736348-9.321739-3.389217 19.750957 14.35826 13.990956-19.834434 2.877218zM115.244522 274.754783l-8.870957-17.975653-19.834435-2.877217 14.358261-13.990956-3.389217-19.756522 17.736348 9.327304 17.741913-9.327304-3.383652 19.756522 14.34713 13.990956-19.834435 2.877217zM53.320348 212.741565l-8.870957-17.975652-19.834434-2.882783 14.352695-13.990956-3.383652-19.745391 17.736348 9.321739 17.741913-9.321739-3.389218 19.745391 14.352696 13.990956-19.834435 2.882783z" fill="#FFFFFF" p-id="9604"></path><path d="M239.098435 522.790957l-8.870957-17.958957-19.834435-2.882783 14.352696-13.985391-3.389217-19.762087 17.741913 9.327304 17.736348-9.327304-3.383653 19.762087 14.352696 13.985391-19.834435 2.882783zM177.168696 460.78887l-8.870957-17.975653-19.834435-2.877217 14.358261-13.990957-3.394782-19.756521 17.741913 9.327304 17.736347-9.327304-3.378086 19.756521 14.34713 13.990957-19.834435 2.877217zM115.244522 398.775652l-8.870957-17.964522-19.834435-2.882782 14.352696-13.985391-3.383652-19.762087 17.736348 9.327304 17.741913-9.327304-3.389218 19.762087 14.352696 13.985391-19.834435 2.882782zM53.320348 336.768l-8.870957-17.981217-19.834434-2.877218 14.34713-13.990956-3.378087-19.750957 17.736348 9.321739 17.741913-9.321739-3.394783 19.750957 14.358261 13.990956-19.834435 2.877218z" fill="#FFFFFF" p-id="9605"></path><path d="M115.250087 522.790957l-8.870957-17.958957-19.834434-2.882783 14.352695-13.985391-3.389217-19.762087 17.741913 9.327304 17.736348-9.327304-3.383652 19.762087 14.352695 13.985391-19.834435 2.882783zM53.320348 460.78887l-8.870957-17.970087-19.834434-2.877218 14.35826-13.990956-3.389217-19.762087 17.736348 9.327304 17.741913-9.327304-3.383652 19.762087 14.34713 13.990956-19.834435 2.877218z" fill="#FFFFFF" p-id="9606"></path></svg>