<svg t="1642560548455" class="icon" viewBox="0 0 1587 1024" version="1.1" xmlns="http://www.w3.org/2000/svg" p-id="8453" width="200" height="200"><path d="M6.631928 1017.570574H1580.525041V6.27755H6.631928V1017.570574z m1577.234389 3.240026zM0 1024V0h1587.156968v1024z" fill="#353636" p-id="8454"></path><path d="M1583.866317 1020.861225H3.341277V3.138775h1580.52504v1017.72245z" fill="#E50012" p-id="8455"></path><path d="M268.061502 118.058437l33.36214 99.124536h107.933356L322.02818 278.54096l33.311514 99.225787L268.061502 316.408761 180.631433 377.766747l33.36214-99.225787L126.664755 217.182973h107.983982l33.412765-99.124536zM549.437485 66.268651l-2.227518 34.273397 32.957136 12.65635-34.374647 8.505068-2.379394 34.273397-18.984526-29.058981-34.374648 8.505068 22.68018-26.375835-18.984525-29.008355 33.007762 12.706976 22.68018-26.477085zM670.735947 177.391408l-16.200129 30.577742 25.059574 24.300193-35.032778-5.467543-16.301379 30.577742-5.416918-33.919019-35.134029-5.467543 31.640876-15.440748-5.366292-33.919019 24.958323 24.300193 31.792752-15.541998zM634.285658 316.459386l10.833836 32.653384 35.640283 0.050625-28.856479 20.14891 10.985712 32.653384-28.653978-20.199535-28.856479 20.14891 11.036338-32.602759-28.704603-20.199535 35.488407 0.050625 11.086963-32.704009zM549.234983 421.203342l-2.328769 34.273397 33.007762 12.706976-34.425273 8.454442-2.328768 34.273397-18.9339-29.008355-34.475899 8.454442 22.68018-26.375835-18.984526-29.05898 33.058388 12.757601 22.730805-26.477085z" fill="#FFF000" p-id="8456"></path></svg>